<mxfile host="app.diagrams.net" agent="Mozilla/5.0 (Windows NT 10.0; Win64; x64) AppleWebKit/537.36 (KHTML, like Gecko) Chrome/128.0.0.0 Safari/537.36" version="24.7.13">
  <diagram id="C5RBs43oDa-KdzZeNtuy" name="Page-1">
    <mxGraphModel dx="863" dy="434" grid="1" gridSize="10" guides="1" tooltips="1" connect="1" arrows="1" fold="1" page="1" pageScale="1" pageWidth="827" pageHeight="1169" math="0" shadow="0">
      <root>
        <mxCell id="WIyWlLk6GJQsqaUBKTNV-0" />
        <mxCell id="WIyWlLk6GJQsqaUBKTNV-1" parent="WIyWlLk6GJQsqaUBKTNV-0" />
        <mxCell id="faWs7BlV4zJStgUeju7q-0" value="C1&lt;div&gt;&lt;br&gt;&lt;/div&gt;" style="swimlane;fontStyle=1;align=center;verticalAlign=top;childLayout=stackLayout;horizontal=1;startSize=26;horizontalStack=0;resizeParent=1;resizeParentMax=0;resizeLast=0;collapsible=1;marginBottom=0;whiteSpace=wrap;html=1;movable=1;resizable=1;rotatable=1;deletable=1;editable=1;locked=0;connectable=1;" vertex="1" parent="WIyWlLk6GJQsqaUBKTNV-1">
          <mxGeometry x="260" y="120" width="310" height="340" as="geometry">
            <mxRectangle x="260" y="120" width="60" height="40" as="alternateBounds" />
          </mxGeometry>
        </mxCell>
        <mxCell id="faWs7BlV4zJStgUeju7q-1" value="&amp;lt;&amp;lt;constant&amp;gt;&amp;gt; - privateConst: int = 100&amp;nbsp;&lt;br&gt;- privateField: string&lt;br&gt;&amp;lt;&amp;lt;getter/setter&amp;gt;&amp;gt; - PrivateProperty: string&amp;nbsp;&lt;br&gt;- PrivateMethod(): void" style="text;strokeColor=none;fillColor=none;align=left;verticalAlign=top;spacingLeft=4;spacingRight=4;overflow=hidden;rotatable=0;points=[[0,0.5],[1,0.5]];portConstraint=eastwest;whiteSpace=wrap;html=1;" vertex="1" parent="faWs7BlV4zJStgUeju7q-0">
          <mxGeometry y="26" width="310" height="74" as="geometry" />
        </mxCell>
        <mxCell id="faWs7BlV4zJStgUeju7q-2" value="" style="line;strokeWidth=1;fillColor=none;align=left;verticalAlign=middle;spacingTop=-1;spacingLeft=3;spacingRight=3;rotatable=0;labelPosition=right;points=[];portConstraint=eastwest;strokeColor=inherit;" vertex="1" parent="faWs7BlV4zJStgUeju7q-0">
          <mxGeometry y="100" width="310" height="8" as="geometry" />
        </mxCell>
        <mxCell id="faWs7BlV4zJStgUeju7q-3" value="&amp;lt;&amp;lt;constant&amp;gt;&amp;gt; # protectedConst: int = 200&lt;br&gt;# protectedField: string&lt;br&gt;&amp;lt;&amp;lt;getter/setter&amp;gt;&amp;gt; # ProtectedProperty: string&lt;br&gt;# ProtectedMethod(): void" style="text;strokeColor=none;fillColor=none;align=left;verticalAlign=top;spacingLeft=4;spacingRight=4;overflow=hidden;rotatable=0;points=[[0,0.5],[1,0.5]];portConstraint=eastwest;whiteSpace=wrap;html=1;" vertex="1" parent="faWs7BlV4zJStgUeju7q-0">
          <mxGeometry y="108" width="310" height="72" as="geometry" />
        </mxCell>
        <mxCell id="faWs7BlV4zJStgUeju7q-9" value="" style="line;strokeWidth=1;fillColor=none;align=left;verticalAlign=middle;spacingTop=-1;spacingLeft=3;spacingRight=3;rotatable=0;labelPosition=right;points=[];portConstraint=eastwest;strokeColor=inherit;fontFamily=Helvetica;fontSize=12;fontColor=default;fontStyle=1;" vertex="1" parent="faWs7BlV4zJStgUeju7q-0">
          <mxGeometry y="180" width="310" height="8" as="geometry" />
        </mxCell>
        <mxCell id="faWs7BlV4zJStgUeju7q-10" value="&lt;div style=&quot;&quot;&gt;&lt;span style=&quot;background-color: initial;&quot;&gt;&amp;lt;&amp;lt;constant&amp;gt;&amp;gt;&amp;nbsp;&lt;/span&gt;&lt;span style=&quot;background-color: initial;&quot;&gt;+ publicConst: int = 300&lt;br&gt;+ publicField: string&lt;br&gt;&lt;/span&gt;&lt;span style=&quot;&quot;&gt;&amp;lt;&amp;lt;getter/setter&amp;gt;&amp;gt;&amp;nbsp;&lt;/span&gt;&lt;span style=&quot;background-color: initial;&quot;&gt;+ PublicProperty: string&lt;br&gt;+ PublicMethod(): void&lt;br&gt;+ DisplayFields(): void&lt;br&gt;+ AccessProtectedMethod(): void&lt;br&gt;&lt;/span&gt;&amp;lt;&amp;lt;constructor&amp;gt;&amp;gt;&amp;nbsp;&lt;span style=&quot;background-color: initial;&quot;&gt;+ C1()&lt;br&gt;&lt;/span&gt;&amp;lt;&amp;lt;constructor&amp;gt;&amp;gt;&amp;nbsp;&lt;span style=&quot;background-color: initial;&quot;&gt;+ C1(C1 other)&amp;nbsp;&lt;br&gt;&lt;/span&gt;&amp;lt;&amp;lt;constructor&amp;gt;&amp;gt;&amp;nbsp;&lt;span style=&quot;background-color: initial;&quot;&gt;+ C1(string priv, string prot, string publ)&lt;/span&gt;&lt;/div&gt;" style="text;strokeColor=none;fillColor=none;align=left;verticalAlign=top;spacingLeft=4;spacingRight=4;overflow=hidden;rotatable=0;points=[[0,0.5],[1,0.5]];portConstraint=eastwest;whiteSpace=wrap;html=1;fontFamily=Helvetica;fontSize=12;fontColor=default;fontStyle=0;" vertex="1" parent="faWs7BlV4zJStgUeju7q-0">
          <mxGeometry y="188" width="310" height="152" as="geometry" />
        </mxCell>
      </root>
    </mxGraphModel>
  </diagram>
</mxfile>
